<svg xmlns="http://www.w3.org/2000/svg" fill="none" viewBox="0 0 20 24"><path fill="#999" d="M15.95 18.48c-.346 0-.619.3-.619.668 0 .246.124.465.313.577v1.095c0 .187.138.332.312.332.173 0 .312-.145.312-.332v-1.09a.69.69 0 0 0 .312-.576c-.01-.374-.282-.673-.63-.673zm2.806-2.003h-.322v-.993a.3.3 0 0 0 .005-.102C18.29 14.026 17.299 13 15.946 13c-1.482 0-2.483 1.229-2.483 2.735v.737h.62v-.737c0-1.138.728-2.062 1.863-2.062 1.02 0 1.75.759 1.868 1.774v1.036h-4.673c-.684 0-1.25.593-1.25 1.335v4.007c0 .737.566 1.33 1.25 1.33h5.61c.684 0 1.249-.604 1.249-1.33v-4.007c.005-.742-.555-1.34-1.244-1.34zm.62 5.342c0 .374-.273.668-.62.668h-5.61c-.342 0-.62-.294-.62-.662v-4.017c0-.364.283-.668.62-.668h5.61c.347 0 .62.294.62.668z"/><path fill="#999" fill-rule="evenodd" d="M5.405 9.693a.45.45 0 0 0-.45.462c0 .258.198.461.45.461h8.559c.252 0 .45-.203.45-.461a.45.45 0 0 0-.45-.462z"/><path fill="#999" fill-rule="evenodd" d="M10.36 5.539a.45.45 0 0 0-.45-.462.45.45 0 0 0-.45.462v8.77c0 .258.198.462.45.462s.45-.204.45-.462z"/><path fill="#999" fill-rule="evenodd" d="M10.037.001a2 2 0 0 0-.573.06L1.66 1.974q-.816.2-1.231.73C.152 3.065 0 3.56 0 4.151v9.91q0 .254.053.483a11.2 11.2 0 0 0 .75 2.192q2.13 4.594 8.494 7.126.308.122.613.137v-.9a1 1 0 0 1-.304-.073q-6.154-2.449-8.104-6.852a11.4 11.4 0 0 1-.611-1.839 1.2 1.2 0 0 1-.03-.273v-9.91q0-.531.25-.858c.166-.212.42-.369.747-.449L9.662.932a1.24 1.24 0 0 1 .685.026l7.706 2.515q.453.149.679.468.225.321.226.813v9.093h.862V4.754q0-.821-.377-1.355-.378-.534-1.132-.78L10.605.104a2 2 0 0 0-.568-.103"/></svg>