<svg xmlns="http://www.w3.org/2000/svg" class="icon" viewBox="0 0 1024 1024"><path fill="#999" d="M228.365 182.367c-13.197 0-21.988 8.79-21.988 21.987s8.79 21.988 21.988 21.988 21.988-8.79 21.988-21.988c0-13.185-8.803-21.987-21.988-21.987m-87.962 0c-13.198 0-21.988 8.79-21.988 21.987s8.79 21.988 21.988 21.988 21.987-8.79 21.987-21.988c0-13.185-8.79-21.987-21.987-21.987m571.737 0H404.278c-13.198 0-21.988 8.79-21.988 21.987s8.79 21.988 21.988 21.988H712.14c13.197 0 21.988-8.79 21.988-21.988 0-13.185-8.79-21.987-21.988-21.987m-395.813 0c-13.197 0-21.987 8.79-21.987 21.987s8.79 21.988 21.987 21.988 21.988-8.79 21.988-21.988c0-13.185-8.802-21.987-21.988-21.987m677.22 579.13V709.78l-66.697-14.823a133 133 0 0 0-8.55-20.47l36.727-57.715-36.57-36.57-57.714 36.727a132.5 132.5 0 0 0-20.47-8.55l-14.811-66.685h-51.718l-14.823 66.697a133 133 0 0 0-20.47 8.55l-57.715-36.727-36.57 36.582 36.727 57.715c-3.384 6.538-6.274 13.366-8.55 20.47l-66.685 14.81v51.719l66.697 14.823c2.276 7.116 5.166 13.932 8.55 20.47l-36.727 57.714L680.76 891.1l57.715-36.726c6.538 3.384 13.365 6.273 20.47 8.55l14.81 66.685h51.719l14.823-66.698a132 132 0 0 0 20.47-8.55l57.69 36.703 36.582-36.57-36.726-57.714c3.383-6.539 6.273-13.366 8.55-20.47zm-193.95 38.786a64.662 64.662 0 1 1 0-129.313 64.662 64.662 0 0 1 0 129.313"/><path fill="#999" d="M74.428 798.091V314.316h703.687v193.18h43.024l.95 4.311v-329.44c0-48.382-39.58-87.962-87.961-87.962H118.415c-48.382 0-87.962 39.58-87.962 87.962V798.09c0 48.383 39.58 87.963 87.962 87.963h483.522l27.984-43.975H118.415a44.13 44.13 0 0 1-43.987-43.988m0-615.724a44.11 44.11 0 0 1 43.975-43.975h615.725a44.11 44.11 0 0 1 43.975 43.975v87.962H74.428z"/></svg>